<svg xmlns="http://www.w3.org/2000/svg" viewBox="0 0 32 32" id="fashion"><path fill="#2c4355" d="M16 18c-5.237 0-10.803-1.315-10.803-3.753 0-1.4 1.896-2.582 5.204-3.241a.5.5 0 1 1 .195.981c-3.022.603-4.399 1.595-4.399 2.261C6.197 15.396 9.927 17 16 17s9.803-1.604 9.803-2.753c0-.66-1.36-1.646-4.345-2.25a.5.5 0 1 1 .198-.98c3.271.662 5.147 1.839 5.147 3.23C26.803 16.685 21.237 18 16 18z"></path><path fill="#2c4355" d="M16 16.014c-3.045 0-6.323-.732-6.323-2.339a.5.5 0 0 1 1 0c0 .4 1.811 1.339 5.323 1.339s5.323-.938 5.323-1.339a.5.5 0 0 1 1 0c0 1.607-3.278 2.339-6.323 2.339z"></path><path fill="#2c4355" d="M16 13.981c-2.89 0-6-.7-6-2.237a.5.5 0 0 1 1 0c0 .359 1.752 1.237 5 1.237s5-.878 5-1.237a.5.5 0 0 1 1 0c0 1.537-3.11 2.237-6 2.237z"></path><path fill="#2c4355" d="M21.823 14.175a.5.5 0 0 1-.492-.415l-1.175-6.817a1.263 1.263 0 0 0-.78-.855 1.275 1.275 0 0 0-1.182.13l-.425.283a3.179 3.179 0 0 1-3.536 0l-.425-.283a1.275 1.275 0 0 0-1.182-.13 1.28 1.28 0 0 0-.788.892l-1.167 6.781a.501.501 0 0 1-.986-.17l1.175-6.817c.188-.758.71-1.35 1.404-1.618a2.296 2.296 0 0 1 2.098.231l.425.283a2.184 2.184 0 0 0 2.427 0l.425-.283a2.296 2.296 0 0 1 2.098-.231c.694.269 1.216.86 1.396 1.582l1.183 6.853a.5.5 0 0 1-.493.584z"></path><path fill="#f15743" d="M25.333 21.333h-.558A1.757 1.757 0 0 0 23.074 20H8.926c-.823 0-1.51.57-1.701 1.333h-.558a.5.5 0 0 0 0 1h.5v2.278A2.391 2.391 0 0 0 9.556 27h1.667a4.283 4.283 0 0 0 4.278-4.278v-.14a1.827 1.827 0 0 1 1 .002v.138c0 .306.035.604.096.891.018.083.053.161.075.243.056.201.113.4.197.588.046.104.108.198.162.298.084.154.166.308.268.45.073.103.159.196.242.293.107.125.214.247.335.359.039.036.068.081.108.116.078.067.166.117.248.178.084.063.165.126.254.182.137.087.28.161.426.232.095.047.188.097.287.136.158.063.322.108.487.152.095.025.186.059.283.077.264.052.535.083.809.083h1.667a2.392 2.392 0 0 0 2.389-2.389v-2.278h.5a.5.5 0 1 0-.001-1zm-5.257 4.582c-.045-.01-.089-.025-.133-.036a3.366 3.366 0 0 1-.377-.117c-.074-.03-.144-.068-.216-.103a3.363 3.363 0 0 1-.264-.143l4.386-4.386a.75.75 0 0 1 .362.63v.398l-3.758 3.757zm-2.294-1.873l-.007-.021L20.796 21h1.39l-3.866 3.866-.025-.027c-.063-.073-.128-.144-.184-.223-.078-.11-.142-.228-.206-.346-.04-.076-.087-.149-.123-.228zm1.6-3.042l-1.867 1.867c-.002-.049-.016-.095-.016-.145v-.333A1.39 1.39 0 0 1 18.888 21h.494zm-6.912 0l-4.179 4.179a1.383 1.383 0 0 1-.124-.568v-.699L11.079 21h1.391zm-4.303.759A.76.76 0 0 1 8.926 21h.739l-1.499 1.499v-.74zm.834 4.124l4.73-4.73c.302.152.541.407.668.722L10.274 26h-.718c-.198 0-.385-.043-.555-.117zm2.739.065l2.707-2.707a3.27 3.27 0 0 1-2.707 2.707zm3.611-4.364a2.384 2.384 0 0 0-.304-.584h1.906a2.418 2.418 0 0 0-.305.586 2.883 2.883 0 0 0-1.297-.002zM22.444 26h-1.039l2.428-2.428v1.04A1.39 1.39 0 0 1 22.444 26z"></path></svg>