<svg xmlns="http://www.w3.org/2000/svg" xmlns:xlink="http://www.w3.org/1999/xlink" enable-background="new 0 0 32 32" viewBox="0 0 32 32" id="fashion"><defs><linearGradient id="a"><stop offset="0" stop-color="#000092"></stop><stop offset="1" stop-color="#ff00f3"></stop></linearGradient><linearGradient id="b" x1="5.197" x2="24.023" y1="16.001" y2="16.001" gradientUnits="userSpaceOnUse" xlink:href="#a"></linearGradient></defs><path fill="url(#b)" d="M 13.341797 5.015625 C 12.981422 4.976 12.610672 5.0202969 12.263672 5.1542969 C 11.569672 5.4232969 11.047375 6.0154375 10.859375 6.7734375 L 10.119141 11.070312 C 6.9941406 11.740312 5.1972656 12.888094 5.1972656 14.246094 C 5.1962656 16.685094 10.763 18 16 18 C 21.237 18 26.802734 16.684094 26.802734 14.246094 C 26.802734 12.889094 25.005859 11.738359 21.880859 11.068359 L 21.132812 6.7363281 C 20.952813 6.0143281 20.430328 5.4232969 19.736328 5.1542969 C 19.042328 4.8862969 18.257672 4.9737187 17.638672 5.3867188 L 17.214844 5.6699219 C 16.477844 6.1609219 15.525109 6.1609219 14.787109 5.6699219 L 14.361328 5.3867188 C 14.051828 5.1802187 13.702172 5.05525 13.341797 5.015625 z M 13.232422 6.0058594 C 13.434047 6.0281094 13.630141 6.0992969 13.806641 6.2167969 L 14.232422 6.5 C 15.306422 7.216 16.693578 7.216 17.767578 6.5 L 18.193359 6.2167969 C 18.547359 5.9797969 18.978 5.9338906 19.375 6.0878906 C 19.772 6.2418906 20.058297 6.5654062 20.154297 6.9414062 L 20.986328 11.767578 C 20.919328 12.139578 19.185 12.980469 16 12.980469 C 12.814 12.980469 11.077719 12.138578 11.011719 11.767578 L 11.837891 6.9785156 C 11.941891 6.5655156 12.227 6.2418906 12.625 6.0878906 C 12.824 6.0113906 13.030797 5.9836094 13.232422 6.0058594 z M 9.9335938 12.138672 L 9.6835938 13.589844 C 9.6805937 13.604844 9.6865469 13.617812 9.6855469 13.632812 C 9.6845469 13.647813 9.6757812 13.660781 9.6757812 13.675781 C 9.6757812 13.709781 9.6864531 13.738484 9.6894531 13.771484 C 9.6904531 13.778484 9.6894062 13.785969 9.6914062 13.792969 C 9.8514063 15.315969 13.032 16.013672 16 16.013672 C 18.968 16.013672 22.148594 15.314969 22.308594 13.792969 C 22.310594 13.785969 22.308547 13.778484 22.310547 13.771484 C 22.313547 13.738484 22.324219 13.708781 22.324219 13.675781 C 22.324219 13.660781 22.316453 13.646813 22.314453 13.632812 C 22.313453 13.618813 22.319406 13.604844 22.316406 13.589844 L 22.064453 12.138672 C 24.614453 12.746672 25.802734 13.634094 25.802734 14.246094 C 25.803734 15.396094 22.073 17 16 17 C 9.927 17 6.1972656 15.395094 6.1972656 14.246094 C 6.1972656 13.632094 7.3835937 12.746672 9.9335938 12.138672 z M 10.810547 12.945312 C 11.923547 13.651312 14.014 13.982422 16 13.982422 C 17.986 13.982422 20.076453 13.651312 21.189453 12.945312 L 21.318359 13.6875 C 21.289359 14.0935 19.484 15.015625 16 15.015625 C 12.516 15.015625 10.710641 14.0935 10.681641 13.6875 L 10.810547 12.945312 z M 8.9257812 20 C 8.1027812 20 7.4156094 20.569031 7.2246094 21.332031 L 6.6679688 21.332031 C 6.3919688 21.332031 6.1679688 21.556031 6.1679688 21.832031 C 6.1679688 22.108031 6.3919688 22.332031 6.6679688 22.332031 L 7.1679688 22.332031 L 7.1679688 24.611328 C 7.1679688 25.928328 8.2386406 27 9.5566406 27 L 11.222656 27 C 13.581656 27 15.501953 25.081656 15.501953 22.722656 L 15.501953 22.582031 C 15.828953 22.489031 16.174953 22.490984 16.501953 22.583984 L 16.501953 22.722656 C 16.501953 23.028656 16.536656 23.326281 16.597656 23.613281 C 16.615656 23.696281 16.649875 23.773469 16.671875 23.855469 C 16.727875 24.056469 16.785141 24.255359 16.869141 24.443359 C 16.915141 24.547359 16.97725 24.642187 17.03125 24.742188 C 17.11525 24.896187 17.196828 25.049406 17.298828 25.191406 C 17.371828 25.294406 17.458016 25.387375 17.541016 25.484375 C 17.648016 25.609375 17.755953 25.73175 17.876953 25.84375 C 17.915953 25.87975 17.944375 25.925937 17.984375 25.960938 C 18.062375 26.027938 18.150422 26.077672 18.232422 26.138672 C 18.316422 26.201672 18.397328 26.264313 18.486328 26.320312 C 18.623328 26.407312 18.766109 26.481734 18.912109 26.552734 C 19.007109 26.599734 19.100219 26.6485 19.199219 26.6875 C 19.357219 26.7505 19.520547 26.795844 19.685547 26.839844 C 19.780547 26.864844 19.87175 26.899969 19.96875 26.917969 C 20.23275 26.969969 20.503344 27 20.777344 27 L 22.445312 27 C 23.762313 27 24.833984 25.928328 24.833984 24.611328 L 24.833984 22.332031 L 25.333984 22.332031 C 25.609984 22.332031 25.833984 22.108031 25.833984 21.832031 C 25.833984 21.556031 25.609031 21.332031 25.332031 21.332031 L 24.775391 21.332031 C 24.584391 20.569031 23.897219 20 23.074219 20 L 20 20 L 18.888672 20 L 13.111328 20 L 12 20 L 8.9257812 20 z M 8.9257812 21 L 9.6640625 21 L 8.1660156 22.498047 L 8.1660156 21.759766 L 8.1679688 21.759766 C 8.1679688 21.341766 8.5067812 21 8.9257812 21 z M 11.078125 21 L 12 21 L 12.470703 21 L 8.2910156 25.179688 C 8.2130156 25.005688 8.1679688 24.814328 8.1679688 24.611328 L 8.1679688 23.912109 L 11.078125 21 z M 15.046875 21 L 16.953125 21 C 16.825125 21.179 16.724437 21.375938 16.648438 21.585938 C 16.223437 21.487938 15.777563 21.484984 15.351562 21.583984 C 15.275563 21.373984 15.174875 21.178 15.046875 21 z M 18.888672 21 L 19.382812 21 L 17.515625 22.867188 C 17.513625 22.818188 17.498047 22.772656 17.498047 22.722656 L 17.498047 22.388672 C 17.498047 21.622672 18.122672 21 18.888672 21 z M 20.796875 21 L 22.185547 21 L 18.320312 24.865234 C 18.312313 24.856234 18.302922 24.849844 18.294922 24.839844 C 18.231922 24.766844 18.167328 24.694234 18.111328 24.615234 C 18.033328 24.505234 17.968297 24.387531 17.904297 24.269531 C 17.864297 24.193531 17.81725 24.121969 17.78125 24.042969 C 17.77825 24.035969 17.778391 24.028484 17.775391 24.021484 L 20.796875 21 z M 23.472656 21.130859 C 23.684656 21.265859 23.833984 21.490766 23.833984 21.759766 L 23.833984 22.158203 L 20.076172 25.914062 C 20.031172 25.904063 19.987359 25.889906 19.943359 25.878906 C 19.815359 25.844906 19.687406 25.809719 19.566406 25.761719 C 19.492406 25.731719 19.421609 25.693203 19.349609 25.658203 C 19.259609 25.614203 19.171938 25.567625 19.085938 25.515625 L 23.472656 21.130859 z M 13.730469 21.152344 C 14.032469 21.304344 14.271437 21.56 14.398438 21.875 L 10.273438 26 L 9.5566406 26 C 9.3586406 26 9.1719531 25.956812 9.0019531 25.882812 L 13.730469 21.152344 z M 14.447266 23.240234 C 14.224266 24.630234 13.131234 25.723266 11.740234 25.947266 L 14.447266 23.240234 z M 23.832031 23.572266 L 23.832031 24.611328 C 23.832031 25.376328 23.209359 26 22.443359 26 L 21.404297 26 L 23.832031 23.572266 z "></path></svg>