<svg xmlns="http://www.w3.org/2000/svg" viewBox="0 0 64 64" id="makeup"><path fill="#f9af95" d="M35,47.32A20,20,0,1,1,41,18l3,4v9L43,43Z"></path><path fill="#00bfff" d="M35,42.48A16,16,0,1,1,37.48,20L39,22V37Z"></path><path fill="#f78d69" d="M36,61H6.5A3.5,3.5,0,0,1,3,57.5V55H36"></path><path fill="#f9f691" d="M36,55H5V52.79A2.79,2.79,0,0,1,7.79,50H36"></path><line x1="14" x2="21" y1="27" y2="20" fill="none" stroke="#5fd9f9" stroke-linecap="round" stroke-miterlimit="10" stroke-width="2"></line><line x1="14" x2="27" y1="33" y2="20" fill="none" stroke="#5fd9f9" stroke-linecap="round" stroke-miterlimit="10" stroke-width="2"></line><path fill="#e6e6e6" d="M35.5,33h15a.5.5,0,0,1,.5.5V55a0,0,0,0,1,0,0H35a0,0,0,0,1,0,0V33.5A.5.5,0,0,1,35.5,33Z"></path><rect width="16" height="4" x="35" y="41" fill="#d8c577"></rect><path fill="#ff69b4" d="M49,33H37V20.6a.14.14,0,0,1,.07-.13L48.87,15c.06,0,.13,0,.13.13Z"></path><rect width="6" height="15" x="55" y="46" fill="#b3b3b3" rx=".1"></rect><line x1="58" x2="58" y1="20" y2="46" fill="none" stroke="#14232d" stroke-miterlimit="10" stroke-width="2"></line><line x1="54" x2="62" y1="31" y2="31" fill="none" stroke="#14232d" stroke-miterlimit="10" stroke-width="2"></line><line x1="54" x2="62" y1="35" y2="35" fill="none" stroke="#14232d" stroke-miterlimit="10" stroke-width="2"></line><line x1="55" x2="61" y1="39" y2="39" fill="none" stroke="#14232d" stroke-miterlimit="10" stroke-width="2"></line><line x1="54" x2="62" y1="27" y2="27" fill="none" stroke="#14232d" stroke-miterlimit="10" stroke-width="2"></line><line x1="55" x2="61" y1="23" y2="23" fill="none" stroke="#14232d" stroke-miterlimit="10" stroke-width="2"></line><rect width="4" height="6" x="39" y="55" fill="#f98fa8"></rect><rect width="4" height="6" x="43" y="55" fill="#f2c9d8"></rect><path fill="#f98fa8" d="M47,55h4a0,0,0,0,1,0,0v5.5a.5.5,0,0,1-.5.5H47a0,0,0,0,1,0,0V55A0,0,0,0,1,47,55Z"></path><path fill="#f2c9d8" d="M35,55h4a0,0,0,0,1,0,0v6a0,0,0,0,1,0,0H35.5a.5.5,0,0,1-.5-.5V55A0,0,0,0,1,35,55Z"></path><g><path d="M6.5,62h44A1.5,1.5,0,0,0,52,60.5v-27A1.5,1.5,0,0,0,50.5,32H50V15.14a1.15,1.15,0,0,0-.51-1l-.54-.3-7.28,3.37A21,21,0,1,0,16.11,49H7.79A3.79,3.79,0,0,0,4,52.79V54H2v3.5A4.51,4.51,0,0,0,6.5,62ZM36,60V56h2v4Zm4,0V56h2v4Zm4,0V56h2v4Zm6,0H48V56h2Zm0-6H36V46H50ZM36,20.6V32h-.5A1.5,1.5,0,0,0,34,33.5V42a14.81,14.81,0,0,1-9,3A15,15,0,1,1,36.16,20,1.15,1.15,0,0,0,36,20.6ZM36,42H50v2H36Zm-2,7h-.07L34,49Zm16-9H36V34H50Zm-2-8H38V21.14l10-4.63ZM6,30A19,19,0,0,1,25,11a18.81,18.81,0,0,1,14.8,7.1L37.91,19A17,17,0,1,0,34,44.4v2.33A19,19,0,0,1,6,30ZM6,52.79A1.79,1.79,0,0,1,7.79,51H34v3H6ZM4,56H34v4H6.5A2.5,2.5,0,0,1,4,57.5Z"></path><path d="M14 28a1 1 0 0 0 .71-.29l7-7a1 1 0 0 0-1.42-1.42l-7 7a1 1 0 0 0 0 1.42A1 1 0 0 0 14 28zM26.29 19.29l-13 13a1 1 0 0 0 0 1.42 1 1 0 0 0 1.42 0l13-13a1 1 0 0 0-1.42-1.42zM59 24h2V22H59V20H57v2H55v2h2v2H54v2h3v2H54v2h3v2H54v2h3v2H55v2h2v5H55.1A1.1 1.1 0 0 0 54 46.1V60.9A1.1 1.1 0 0 0 55.1 62h5.8A1.1 1.1 0 0 0 62 60.9V46.1A1.1 1.1 0 0 0 60.9 45H59V40h2V38H59V36h3V34H59V32h3V30H59V28h3V26H59zm1 36H56V47h4z"></path></g></svg>