<?xml version="1.0" standalone="no"?>
<!DOCTYPE svg PUBLIC "-//W3C//DTD SVG 20010904//EN"
 "http://www.w3.org/TR/2001/REC-SVG-20010904/DTD/svg10.dtd">
<svg version="1.0" xmlns="http://www.w3.org/2000/svg"
 width="2076.000000pt" height="679.000000pt" viewBox="0 0 2076.000000 679.000000"
 preserveAspectRatio="xMidYMid meet">

<g transform="translate(0.000000,679.000000) scale(0.100000,-0.100000)"
fill="#000000" stroke="none">
<path d="M4320 6429 c-155 -155 -414 -400 -621 -586 l-47 -43 -113 30 c-157
41 -316 67 -495 80 -130 10 -224 9 -645 -10 -272 -13 -641 -23 -821 -24 -181
-1 -328 -2 -328 -3 0 -8 149 -76 225 -102 269 -95 599 -164 915 -191 69 -5
246 -17 395 -25 305 -17 484 -41 677 -90 344 -86 572 -207 774 -409 159 -160
242 -286 329 -500 l32 -79 6 74 c21 285 -104 619 -316 846 -73 77 -202 183
-274 225 -29 16 -53 32 -53 34 0 3 35 51 79 107 183 238 369 559 440 761 17
49 30 89 29 90 -2 1 -86 -83 -188 -185z"/>
<path d="M4536 6568 c44 -145 171 -390 305 -591 122 -181 284 -386 499 -627
231 -260 324 -377 428 -541 189 -295 278 -543 289 -799 l6 -136 96 -16 c53 -9
104 -20 112 -23 13 -5 20 7 33 62 27 113 35 192 31 318 -10 364 -171 746 -460
1090 -85 102 -355 369 -552 546 -242 218 -428 394 -604 569 -196 194 -197 195
-183 148z"/>
<path d="M1233 5582 c-1 -152 -11 -484 -22 -737 -12 -253 -21 -529 -21 -615 0
-249 35 -496 97 -694 l25 -79 -39 -41 c-22 -22 -152 -162 -290 -311 -138 -148
-302 -321 -365 -382 -63 -62 -109 -113 -102 -113 24 0 190 63 264 100 183 92
407 237 608 393 35 27 65 47 66 45 1 -2 22 -34 47 -73 125 -196 299 -354 492
-448 120 -59 220 -92 331 -112 91 -15 231 -19 276 -6 l25 7 -30 8 c-41 10
-203 87 -278 132 -152 91 -311 238 -414 382 -62 87 -160 281 -205 408 -69 193
-119 475 -138 784 -33 532 -52 704 -106 970 -53 265 -106 434 -183 587 l-36
72 -2 -277z"/>
<path d="M16990 4754 c-82 -21 -188 -77 -252 -131 -121 -104 -174 -228 -172
-403 3 -205 70 -366 214 -511 l85 -86 -150 -6 c-320 -13 -550 -95 -776 -275
-185 -148 -326 -388 -381 -647 -20 -94 -23 -139 -23 -310 0 -187 2 -207 28
-310 76 -295 252 -526 493 -648 121 -61 347 -92 500 -68 169 26 285 84 490
243 l129 100 7 -43 c12 -66 55 -145 98 -179 71 -56 137 -73 303 -78 l147 -4 0
1373 c0 821 -4 1408 -10 1458 -30 260 -171 446 -391 516 -65 20 -100 25 -182
24 -56 0 -127 -7 -157 -15z m34 -202 c74 -41 125 -120 145 -227 11 -60 16
-845 5 -845 -24 0 -203 120 -303 203 -129 108 -217 244 -252 387 -20 83 -15
223 9 292 69 194 239 275 396 190z m-49 -1011 c85 -39 129 -82 167 -159 l33
-67 3 -775 2 -775 -79 -65 c-150 -121 -266 -179 -382 -187 -199 -16 -392 139
-489 389 -100 258 -124 559 -71 868 78 451 272 733 545 796 90 20 196 11 271
-25z"/>
<path d="M10935 4448 c-62 -22 -113 -67 -140 -123 -25 -50 -27 -63 -23 -143 5
-96 18 -131 70 -183 64 -63 163 -90 261 -69 123 25 200 128 200 264 0 125 -57
215 -160 252 -45 16 -166 17 -208 2z"/>
<path d="M14704 4436 c-59 -27 -116 -90 -132 -145 -16 -50 -15 -143 0 -195 8
-25 32 -61 63 -93 40 -41 62 -55 109 -68 152 -44 301 30 342 171 28 97 5 214
-54 278 -72 76 -224 101 -328 52z"/>
<path d="M3122 2908 l3 -1283 28 -58 c58 -117 163 -164 390 -174 l137 -6 0
781 0 782 520 0 520 0 0 25 0 25 -520 0 -520 0 0 571 0 571 383 -5 c291 -4
401 -9 460 -21 244 -48 403 -120 507 -229 l40 -41 0 172 0 172 -975 0 -975 0
2 -1282z"/>
<path d="M11630 4185 c0 -2 40 -95 89 -207 49 -112 128 -293 176 -403 150
-342 264 -603 340 -780 40 -93 85 -197 100 -230 15 -33 71 -161 125 -285 54
-124 137 -315 184 -424 103 -236 138 -298 211 -364 73 -67 131 -86 259 -87
l99 0 69 190 c37 105 114 316 170 470 56 154 137 377 180 495 44 118 97 265
118 325 20 61 72 202 113 315 138 374 357 979 357 988 0 2 -10 2 -21 0 -19 -2
-32 -31 -84 -178 -76 -215 -217 -604 -292 -805 -30 -82 -88 -242 -128 -355
-41 -113 -106 -293 -145 -400 -39 -107 -109 -301 -156 -430 -47 -129 -90 -242
-94 -250 -10 -17 -28 20 -175 360 -51 118 -141 325 -200 460 -59 135 -151 346
-205 470 -54 124 -122 281 -153 350 -30 69 -72 166 -92 215 -21 50 -70 158
-110 240 -137 285 -205 324 -567 325 -93 0 -168 -2 -168 -5z"/>
<path d="M9429 3873 c-1 -267 -15 -293 -164 -301 -81 -4 -85 -6 -85 -27 0 -23
3 -23 111 -27 96 -3 113 -6 125 -22 12 -17 14 -154 14 -880 0 -934 1 -941 55
-1053 83 -169 296 -255 517 -208 139 29 261 93 367 192 l66 63 -60 -30 c-79
-40 -155 -53 -224 -40 -66 12 -105 40 -134 93 l-22 42 -3 923 -3 922 206 0
206 0 -3 23 c-3 22 -4 22 -204 25 l-201 2 -7 59 c-13 118 -87 220 -210 290
-49 28 -304 121 -332 121 -11 0 -14 -32 -15 -167z"/>
<path d="M5869 3619 c-433 -35 -775 -278 -919 -652 -92 -238 -110 -548 -45
-802 78 -309 278 -561 554 -699 184 -92 319 -121 526 -113 111 4 158 10 228
31 167 50 298 129 418 252 109 112 175 219 239 384 24 61 23 61 -45 -28 -81
-105 -193 -179 -335 -223 -88 -27 -255 -32 -355 -10 -312 68 -556 299 -672
636 -27 79 -63 274 -63 341 l0 44 776 0 775 0 -6 48 c-51 380 -297 655 -676
757 -51 13 -127 27 -168 30 -42 3 -89 7 -106 9 -16 2 -73 0 -126 -5z m234 -69
c152 -47 274 -171 312 -319 28 -104 12 -269 -34 -360 l-21 -41 -480 0 -480 0
0 26 c0 59 32 239 56 311 32 99 72 168 136 239 66 71 125 111 207 140 87 31
211 33 304 4z"/>
<path d="M7890 3619 c-190 -15 -341 -61 -460 -141 -117 -78 -188 -186 -216
-332 -22 -109 -10 -205 36 -298 87 -175 234 -304 617 -543 340 -211 441 -282
539 -380 112 -110 148 -176 148 -269 0 -107 -62 -186 -176 -226 -133 -47 -293
-50 -457 -9 -274 68 -499 237 -675 504 l-46 70 0 -202 0 -202 30 -21 c48 -34
188 -97 302 -135 388 -129 851 -123 1128 15 135 68 237 175 283 298 18 47 22
78 22 182 0 123 -1 126 -36 200 -96 200 -276 357 -724 630 -400 244 -531 344
-590 451 -70 129 -4 269 154 331 85 33 248 37 365 9 187 -45 357 -142 491
-283 73 -75 145 -171 161 -212 15 -40 19 -2 16 183 l-3 198 -87 41 c-48 22
-108 47 -133 56 -207 67 -483 102 -689 85z"/>
<path d="M19005 3605 c-179 -29 -344 -87 -496 -174 l-84 -48 -3 -199 -2 -199
31 60 c114 217 272 391 420 464 155 76 319 90 464 37 176 -64 252 -179 243
-367 -6 -119 -51 -213 -152 -314 -118 -118 -172 -145 -616 -306 -288 -105
-346 -131 -456 -204 -178 -119 -254 -253 -254 -450 0 -163 45 -275 157 -388
77 -79 170 -129 283 -153 139 -30 374 -5 540 57 105 39 320 157 400 219 23 17
19 17 -40 -4 -150 -54 -300 -58 -447 -11 -142 44 -248 147 -294 282 -31 91
-31 240 -1 325 42 117 128 216 262 303 118 77 232 126 610 265 401 147 510
226 510 373 0 90 -25 144 -99 217 -101 99 -251 163 -481 206 -121 22 -383 27
-495 9z"/>
<path d="M10750 2633 c0 -814 2 -947 15 -998 43 -164 156 -231 413 -242 l132
-6 0 946 c0 630 -4 963 -11 996 -13 60 -55 130 -102 165 -68 52 -138 69 -299
74 l-148 4 0 -939z"/>
<path d="M14550 2616 c0 -1090 -5 -1020 85 -1112 76 -78 133 -96 318 -102
l148 -4 -3 963 -3 964 -26 56 c-52 111 -130 158 -291 179 -45 5 -115 10 -155
10 l-73 0 0 -954z"/>
<path d="M635 2442 c141 -139 292 -298 575 -607 476 -518 559 -597 823 -774
87 -59 329 -178 427 -211 201 -68 461 -96 641 -71 292 41 570 191 732 394 l30
39 -62 -32 c-79 -39 -241 -93 -351 -117 -119 -25 -392 -25 -510 0 -368 79
-716 283 -1150 676 -353 320 -615 516 -920 688 -85 49 -338 153 -369 153 -3 0
57 -62 134 -138z"/>
<path d="M20050 2433 c0 -10 -25 -78 -54 -151 -91 -224 -223 -421 -352 -525
l-65 -52 4 -55 c6 -71 38 -155 77 -202 17 -20 56 -49 88 -65 52 -26 66 -28
167 -28 130 1 221 25 303 80 28 20 52 37 52 39 0 1 -20 2 -44 2 -52 -1 -90 23
-121 75 -19 32 -20 55 -23 467 -2 371 -5 432 -17 432 -8 0 -15 -8 -15 -17z"/>
<path d="M7758 867 c-102 -29 -168 -119 -168 -230 0 -147 76 -237 212 -253 64
-7 118 6 176 43 l42 27 0 93 0 93 -100 0 c-82 0 -100 -3 -100 -15 0 -12 16
-15 80 -15 l81 0 -3 -72 -3 -73 -45 -22 c-92 -47 -215 -20 -267 58 -74 112
-31 277 84 326 66 27 160 15 225 -29 30 -20 49 -8 27 18 -40 49 -159 74 -241
51z"/>
<path d="M9445 871 c-112 -29 -175 -116 -175 -241 0 -80 19 -130 70 -180 96
-97 260 -94 348 5 44 50 62 100 62 175 0 102 -43 181 -121 220 -43 23 -138 33
-184 21z m152 -46 c79 -33 117 -96 117 -195 0 -131 -79 -213 -204 -213 -103 0
-176 61 -199 165 -22 96 24 203 102 239 51 23 134 25 184 4z"/>
<path d="M12536 870 c-80 -21 -126 -82 -111 -150 12 -53 65 -80 218 -110 108
-21 151 -93 91 -153 -29 -30 -107 -50 -156 -40 -46 8 -104 39 -121 63 -13 19
-47 19 -47 1 0 -17 69 -72 109 -86 163 -57 320 42 267 169 -19 44 -67 69 -179
90 -95 18 -135 39 -143 73 -16 60 51 113 143 113 60 0 99 -13 131 -43 17 -16
25 -18 34 -9 14 14 -12 46 -54 68 -36 19 -133 26 -182 14z"/>
<path d="M14947 866 c-140 -39 -205 -219 -131 -363 40 -78 97 -114 193 -121
59 -4 77 -1 123 21 142 64 184 260 84 391 -51 68 -171 100 -269 72z m189 -52
c15 -11 42 -37 58 -58 27 -33 31 -47 34 -111 4 -62 0 -81 -19 -121 -78 -157
-315 -141 -374 25 -38 109 0 220 95 272 49 27 167 23 206 -7z"/>
<path d="M17945 871 c-115 -28 -185 -136 -172 -269 13 -144 116 -231 260 -220
97 8 161 51 198 133 25 55 25 175 0 231 -45 99 -169 153 -286 125z m164 -51
c171 -87 137 -361 -49 -399 -100 -20 -190 21 -230 104 -32 65 -26 175 12 232
51 78 179 108 267 63z"/>
<path d="M20015 865 c-99 -26 -138 -119 -77 -185 22 -25 46 -35 138 -58 124
-31 159 -49 168 -86 30 -118 -185 -166 -290 -65 -26 25 -37 30 -46 21 -17 -17
14 -57 65 -84 33 -18 59 -23 122 -23 103 0 148 21 177 80 24 50 20 79 -18 124
-26 32 -51 41 -198 75 -83 19 -106 37 -106 83 0 66 65 100 176 91 42 -4 61
-11 83 -32 22 -21 33 -26 46 -19 28 16 -33 69 -95 82 -63 14 -82 13 -145 -4z"/>
<path d="M4280 855 c0 -12 16 -15 85 -15 l85 0 0 -225 c0 -218 1 -225 20 -225
19 0 20 8 22 223 l3 222 88 3 c68 2 87 6 87 17 0 13 -31 15 -195 15 -167 0
-195 -2 -195 -15z"/>
<path d="M4890 696 c0 -100 5 -187 11 -203 35 -93 158 -138 254 -94 89 41 104
84 105 304 0 160 -1 167 -20 167 -19 0 -20 -7 -20 -171 0 -136 -3 -178 -16
-205 -47 -99 -201 -101 -259 -4 -17 31 -20 57 -24 207 -3 139 -6 173 -17 173
-11 0 -14 -32 -14 -174z"/>
<path d="M5500 630 c0 -233 1 -240 20 -240 19 0 20 7 20 90 l0 90 64 0 63 0
82 -90 c62 -68 89 -90 108 -90 22 0 17 9 -56 88 l-80 87 44 13 c129 38 143
218 21 276 -26 12 -64 16 -160 16 l-126 0 0 -240z m241 200 c56 -16 84 -52 84
-112 0 -43 -4 -53 -33 -79 -32 -28 -35 -29 -145 -29 l-112 0 3 115 3 115 82 0
c45 0 98 -5 118 -10z"/>
<path d="M6087 863 c-4 -3 -7 -111 -7 -240 0 -226 1 -233 20 -233 19 0 20 7
20 191 0 108 4 189 9 187 5 -1 77 -86 160 -188 83 -102 156 -186 161 -188 6
-2 10 83 10 237 0 208 -2 241 -15 241 -13 0 -15 -28 -15 -195 0 -107 -3 -195
-7 -194 -5 0 -73 81 -153 180 -156 194 -173 213 -183 202z"/>
<path d="M6710 630 c0 -207 2 -240 15 -240 13 0 15 33 15 240 0 207 -2 240
-15 240 -13 0 -15 -33 -15 -240z"/>
<path d="M6990 630 c0 -232 1 -240 20 -240 19 0 20 8 22 192 l3 193 155 -192
c85 -106 160 -192 165 -192 6 -1 9 83 8 236 -2 204 -4 238 -17 241 -13 3 -16
-23 -18 -193 l-3 -197 -159 196 c-87 108 -163 196 -167 196 -5 0 -9 -108 -9
-240z"/>
<path d="M8590 630 c0 -207 2 -240 15 -240 13 0 15 29 15 205 0 113 3 205 8
205 4 0 47 -61 96 -135 49 -74 92 -132 96 -130 5 3 46 64 92 135 45 71 86 130
91 130 4 0 7 -92 7 -205 0 -176 2 -205 15 -205 13 0 15 33 15 240 l0 240 -22
0 c-18 0 -39 -26 -98 -117 -41 -64 -79 -124 -84 -134 -5 -11 -14 -19 -20 -18
-6 0 -50 61 -98 135 -65 99 -93 134 -108 134 -19 0 -20 -6 -20 -240z"/>
<path d="M9980 630 c0 -233 1 -240 20 -240 19 0 20 8 22 208 l3 207 90 -137
c50 -76 92 -138 95 -138 3 0 46 62 95 137 l90 137 3 -207 c2 -199 3 -207 22
-207 19 0 20 7 20 240 l0 240 -24 0 c-20 0 -39 -23 -112 -135 -48 -74 -90
-135 -94 -135 -5 0 -48 61 -96 135 -71 109 -92 135 -111 135 l-23 0 0 -240z"/>
<path d="M10680 630 l0 -240 170 0 c143 0 170 2 170 15 0 12 -25 15 -147 17
l-148 3 -3 93 -3 92 141 0 c133 0 140 1 140 20 0 19 -7 20 -140 20 l-140 0 0
90 0 89 147 3 c131 3 148 5 151 21 3 16 -10 17 -167 17 l-171 0 0 -240z"/>
<path d="M11260 630 c0 -232 1 -240 20 -240 19 0 20 8 22 192 l3 192 155 -191
c85 -105 161 -192 168 -192 9 -1 12 53 12 239 0 232 -1 240 -20 240 -19 0 -20
-8 -22 -196 l-3 -197 -160 197 c-87 108 -163 196 -167 196 -4 0 -8 -108 -8
-240z"/>
<path d="M11840 855 c0 -11 19 -15 88 -17 l87 -3 3 -222 c2 -215 3 -223 22
-223 19 0 20 7 20 225 l0 225 85 0 c69 0 85 3 85 15 0 13 -28 15 -195 15 -164
0 -195 -2 -195 -15z"/>
<path d="M13340 630 c0 -233 1 -240 20 -240 19 0 20 7 20 240 0 233 -1 240
-20 240 -19 0 -20 -7 -20 -240z"/>
<path d="M13627 863 c-4 -3 -7 -111 -7 -240 0 -226 1 -233 20 -233 19 0 20 7
20 191 0 106 4 189 9 187 5 -1 77 -87 161 -190 84 -104 157 -188 161 -188 5 0
9 108 9 241 0 224 -1 240 -17 237 -16 -3 -18 -20 -18 -196 0 -105 -2 -192 -5
-192 -3 1 -70 82 -150 181 -156 194 -173 213 -183 202z"/>
<path d="M14210 855 c0 -12 16 -15 85 -15 l85 0 0 -225 c0 -218 1 -225 20
-225 19 0 20 8 22 223 l3 222 88 3 c64 2 87 6 84 15 -3 9 -56 13 -195 15 -166
2 -192 0 -192 -13z"/>
<path d="M15820 630 c0 -233 1 -240 20 -240 19 0 20 7 20 205 0 113 3 205 8
205 4 0 40 -52 80 -115 40 -63 81 -124 91 -136 l18 -23 89 137 c49 75 92 137
97 137 4 0 7 -92 7 -205 0 -176 2 -205 15 -205 13 0 15 33 15 240 l0 240 -22
0 c-18 0 -41 -28 -110 -135 -48 -74 -91 -135 -95 -135 -5 0 -47 61 -95 135
-74 115 -91 135 -113 135 l-25 0 0 -240z"/>
<path d="M16530 630 l0 -240 170 0 c143 0 170 2 170 15 0 12 -26 15 -152 17
l-153 3 0 94 0 93 138 -1 c132 -2 137 -1 137 19 0 19 -6 20 -140 20 l-140 0 0
90 0 90 150 0 c143 0 150 1 150 20 0 19 -7 20 -165 20 l-165 0 0 -240z"/>
<path d="M17090 630 c0 -233 1 -240 20 -240 19 0 20 8 22 206 l3 206 88 -136
c49 -75 92 -136 95 -136 4 0 48 62 97 138 l90 137 3 -207 c2 -200 3 -208 22
-208 19 0 20 7 20 240 l0 240 -25 0 c-22 0 -39 -20 -113 -135 -48 -74 -90
-135 -94 -135 -5 0 -47 61 -95 135 -70 107 -93 135 -110 135 l-23 0 0 -240z"/>
<path d="M18480 630 c0 -233 1 -240 20 -240 19 0 20 7 20 90 l0 90 64 0 64 0
55 -57 c30 -32 67 -73 83 -91 21 -25 36 -33 54 -30 22 3 17 10 -59 91 -57 59
-78 87 -65 87 33 0 99 39 117 69 25 43 22 120 -6 162 -38 58 -74 69 -219 69
l-128 0 0 -240z m252 200 c50 -14 78 -55 78 -115 0 -38 -5 -52 -29 -76 -29
-29 -31 -29 -145 -29 l-116 0 0 115 0 115 88 0 c48 0 104 -5 124 -10z"/>
<path d="M19070 630 c0 -207 2 -240 15 -240 13 0 15 33 15 240 0 207 -2 240
-15 240 -13 0 -15 -33 -15 -240z"/>
<path d="M19350 630 l0 -240 170 0 c144 0 170 2 170 15 0 13 -23 15 -150 15
l-150 0 0 95 0 94 137 3 c122 3 138 5 141 21 3 15 -9 17 -137 17 l-141 0 0 90
0 90 145 0 c138 0 145 1 145 20 0 19 -7 20 -165 20 l-165 0 0 -240z"/>
</g>
</svg>
